<svg width="40" height="50" viewBox="0 0 40 50" fill="none" xmlns="http://www.w3.org/2000/svg">
<path d="M19.9998 22.4999C22.0708 22.4999 23.7498 20.8209 23.7498 18.7499C23.7498 16.6788 22.0708 14.9999 19.9998 14.9999C17.9287 14.9999 16.2498 16.6788 16.2498 18.7499C16.2498 20.8209 17.9287 22.4999 19.9998 22.4999Z" fill="#231F20"/>
<path d="M20 2.50366e-08C14.7301 -0.000263474 9.67314 2.0794 5.92811 5.78698C2.18308 9.49456 0.0526986 14.5304 0 19.8C0 33.5 17.625 48.75 18.375 49.4C18.8278 49.7873 19.4041 50.0002 20 50.0002C20.5959 50.0002 21.1722 49.7873 21.625 49.4C22.5 48.75 40 33.5 40 19.8C39.9473 14.5304 37.8169 9.49456 34.0719 5.78698C30.3269 2.0794 25.2699 -0.000263474 20 2.50366e-08ZM20 27.5C18.2694 27.5 16.5777 26.9868 15.1388 26.0254C13.6998 25.0639 12.5783 23.6973 11.9161 22.0985C11.2538 20.4996 11.0805 18.7403 11.4181 17.043C11.7557 15.3456 12.5891 13.7865 13.8128 12.5628C15.0365 11.3391 16.5956 10.5057 18.293 10.1681C19.9903 9.83051 21.7496 10.0038 23.3485 10.6661C24.9473 11.3283 26.3139 12.4498 27.2754 13.8888C28.2368 15.3277 28.75 17.0194 28.75 18.75C28.75 21.0706 27.8281 23.2962 26.1872 24.9372C24.5462 26.5781 22.3206 27.5 20 27.5Z" fill="#231F20"/>
</svg>
