<svg width="36" height="46" viewBox="0 0 36 46" fill="none" xmlns="http://www.w3.org/2000/svg">
<path d="M18.0007 20.5001C19.9785 20.5001 21.9119 19.9136 23.5564 18.8148C25.2009 17.7159 26.4827 16.1542 27.2395 14.3269C27.9964 12.4996 28.1944 10.489 27.8086 8.54916C27.4227 6.60935 26.4703 4.82752 25.0718 3.429C23.6733 2.03047 21.8914 1.07806 19.9516 0.692213C18.0118 0.306361 16.0012 0.504394 14.1739 1.26127C12.3466 2.01815 10.7849 3.29987 9.68604 4.94436C8.58722 6.58885 8.00073 8.52225 8.00073 10.5001C8.00073 13.1522 9.0543 15.6958 10.9297 17.5711C12.805 19.4465 15.3486 20.5001 18.0007 20.5001Z" fill="#231F20"/>
<path d="M33 45.4999C33.663 45.4999 34.2989 45.2365 34.7678 44.7677C35.2366 44.2989 35.5 43.663 35.5 42.9999C35.5 38.3586 33.6563 33.9075 30.3744 30.6256C27.0925 27.3437 22.6413 25.4999 18 25.4999C13.3587 25.4999 8.90752 27.3437 5.62563 30.6256C2.34374 33.9075 0.5 38.3586 0.5 42.9999C0.5 43.663 0.763393 44.2989 1.23223 44.7677C1.70107 45.2365 2.33696 45.4999 3 45.4999H33Z" fill="#231F20"/>
</svg>
