<svg width="60" height="60" viewBox="0 0 60 60" fill="none" xmlns="http://www.w3.org/2000/svg">
<path d="M43.5002 55C33.2935 54.9868 23.5085 50.9263 16.2912 43.709C9.07396 36.4917 5.01347 26.7068 5.00024 16.5C5.00024 13.45 6.21185 10.5249 8.36852 8.36825C10.5252 6.21158 13.4503 4.99998 16.5002 4.99998C17.1461 4.99506 17.7909 5.05368 18.4252 5.17498C19.0385 5.26573 19.6414 5.41645 20.2252 5.62498C20.6359 5.76905 21.0018 6.01781 21.2868 6.34666C21.5718 6.67551 21.766 7.07305 21.8502 7.49998L25.2752 22.5C25.3676 22.9071 25.3564 23.3309 25.2429 23.7327C25.1294 24.1344 24.917 24.5014 24.6252 24.8C24.3002 25.15 24.2752 25.175 21.2002 26.775C23.6627 32.1771 27.9832 36.5154 33.3752 39C35.0002 35.9 35.0252 35.875 35.3752 35.55C35.6739 35.2582 36.0408 35.0459 36.4425 34.9323C36.8443 34.8188 37.2681 34.8077 37.6752 34.9L52.6752 38.325C53.0885 38.4209 53.4706 38.6203 53.7855 38.9046C54.1004 39.1889 54.3377 39.5486 54.4752 39.95C54.6862 40.5434 54.8452 41.154 54.9502 41.775C55.0509 42.4033 55.101 43.0387 55.1002 43.675C55.0541 46.7119 53.8085 49.6073 51.6352 51.7291C49.4619 53.8509 46.5374 55.0267 43.5002 55Z" fill="#231F20"/>
</svg>
